<svg xmlns="http://www.w3.org/2000/svg" version="1.1" xmlns:xlink="http://www.w3.org/1999/xlink" xmlns:svgjs="http://svgjs.dev/svgjs" width="1000" height="1000" viewBox="0 0 1000 1000"><rect width="1000" height="1000" fill="#000000"></rect><g transform="matrix(0.7,0,0,0.7,149.57605563665675,325.7237831410164)"><svg viewBox="0 0 396 198" data-background-color="#ffffff" preserveAspectRatio="xMidYMid meet" height="499" width="1000" xmlns="http://www.w3.org/2000/svg" xmlns:xlink="http://www.w3.org/1999/xlink"><g id="tight-bounds" transform="matrix(1,0,0,1,0.24008861730862918,-0.21175712292782123)"><svg viewBox="0 0 395.52 198.42363534199814" height="198.42363534199814" width="395.52"><g><svg viewBox="0 0 395.52 198.42363534199814" height="198.42363534199814" width="395.52"><g><svg viewBox="0 0 395.52 198.42363534199814" height="198.42363534199814" width="395.52"><g id="textblocktransform"><svg viewBox="0 0 395.52 198.42363534199814" height="198.42363534199814" width="395.52" id="textblock"><g><svg viewBox="0 0 395.52 198.42363534199814" height="198.42363534199814" width="395.52"><path d="M394.594 42.558C392.735 21.962 387.435 16.236 387.435 16.236 371.165-4.978 350.86-0.406 332.619 2.642 300.414 2.766 268.339 7.297 236.208 9.728 168.767 10.098 100.749 4.002 33.643 19.037 27.339 23.651-6.54 19.943 1.121 45.194 3.129 55.699 10.456 67.356 10.232 76.995 11.236 78.684 12.631 74.812 13.226 77.242 15.309 83.792 18.711 80.702 21.501 84.575 17.614 94.914 20.403 103.523 23.062 112.544 18.377 114.892 12.371 113.78 9.675 121.565 9.396 127.209 7.89 126.138 6.235 125.891 5.026 125.726 2.59 126.344 2.999 128.115 4.394 134.17-1.594 137.672 2.162 143.604-0.422 150.03 3.948 155.591 3.353 162.552 3.278 163.953 3.687 165.147 4.338 165.477 7.22 167.248 3.018 170.708 3.464 174.457 33.029 200.079 65.104 182.366 95.394 194.147 103.259 185.908 97.346 197.072 100.489 195.341 102.943 193.323 104.728 201.685 107.499 196.948 107.927 195.589 107.276 192.376 108.8 192.993 109.6 193.323 110.307 193.241 110.418 191.346 110.586 188.503 109.117 190.275 108.726 188.792 112.947 181.295 111.906 199.131 115.866 198.39 115.68 196.207 114.528 193.076 116.889 193.488 119.232 190.357 119.306 187.762 121.389 194.806 121.463 196.33 121.835 197.401 122.43 198.143 128.938 190.481 135.409 200.861 142.233 197.401 146.417 193.611 150.433 199.461 154.672 198.019 156.16 196.866 157.666 194.806 159.098 198.266 176.632 199.008 195.319 195.918 211.943 198.39 256.364 193.776 303.835 200.285 350.674 194.188 361.719 191.84 373.192 188.503 383.958 185.826 383.958 185.826 392.679 178.494 392.679 145.54S394.538 116.705 394.817 90.465C395.096 64.225 396.398 63.154 394.538 42.558Z" opacity="1" fill="#ffffff" data-fill-palette-color="tertiary"></path><g transform="matrix(1,0,0,1,55.76832,26.230666666666668)"><svg width="283.98335999999995" viewBox="2.8499999046325684 -45.29999923706055 126.93999481201172 65.25" height="145.9623020086648" data-palette-color="#ffffff"><path d="M7.8 0.05Q7.7 0.05 7.63-0.03 7.55-0.1 7.55-0.25L7.55-0.25Q7.55-0.65 7.98-1.3 8.4-1.95 8.8-2.35L8.8-2.35Q9.65-3.1 10.08-3.63 10.5-4.15 10.85-5.15 11.2-6.15 11.55-8.1L11.55-8.1 15.55-31.35 12.15-31.35Q8.5-31.35 7.1-30.53 5.7-29.7 5.7-27.6L5.7-27.6Q5.7-26.15 6.18-25.23 6.65-24.3 6.65-24.1L6.65-24.1Q6.65-23.7 6.15-22.85 5.65-22 5-21.33 4.35-20.65 3.95-20.65L3.95-20.65Q3.8-20.65 3.65-20.85L3.65-20.85Q3.3-21.45 3.08-22.45 2.85-23.45 2.85-24.55L2.85-24.55Q2.85-27.55 4.35-29.85 5.85-32.15 8.6-33.43 11.35-34.7 15-34.7L15-34.7 23.6-34.7Q26.2-34.7 27.6-35.08 29-35.45 29.53-36.25 30.05-37.05 30.05-38.4L30.05-38.4Q30.05-39.9 29.6-40.8 29.15-41.7 29.15-41.85L29.15-41.85Q29.15-42.2 29.65-43.05 30.15-43.9 30.78-44.6 31.4-45.3 31.8-45.3L31.8-45.3Q32.05-45.3 32.1-45.15L32.1-45.15Q33-43.7 33-41.25L33-41.25Q33-38.3 31.5-36.05 30-33.8 27.23-32.58 24.45-31.35 20.75-31.35L20.75-31.35 19.2-31.35 14.8-5.6Q14.7-4.8 14.45-4.33 14.2-3.85 13.75-3.3L13.75-3.3 13.75-3.2Q14.65-2.85 15.75-2.85L15.75-2.85Q16.4-2.85 17.03-3.1 17.65-3.35 17.85-3.35L17.85-3.35Q18.15-3.35 18.15-3.1L18.15-3.1Q18.15-2.7 17.75-2.25L17.75-2.25Q16.65-1 15.88-0.48 15.1 0.05 14.45 0.05L14.45 0.05Q13.9 0.05 12.6-0.35L12.6-0.35Q11.2-0.75 10.65-0.75L10.65-0.75Q9.95-0.75 8.75-0.25L8.75-0.25Q7.95 0.05 7.8 0.05L7.8 0.05ZM27.65 0.5Q27.45 0.5 27.32 0.43 27.2 0.35 27.2 0.25L27.2 0.25Q27.2 0.1 27.5-0.4 27.8-0.9 27.95-1.8L27.95-1.8Q28.15-2.85 28.3-3.73 28.45-4.6 28.6-5.35L28.6-5.35Q29.85-12.2 30.27-14.93 30.7-17.65 30.65-18.9L30.65-18.9Q30.65-19.55 30.55-19.85 30.45-20.15 30.1-20.15L30.1-20.15Q29.65-20.15 28.95-19.4 28.25-18.65 27.65-17.65L27.65-17.65Q27.4-17.2 27.2-16.88 27-16.55 26.87-16.4 26.75-16.25 26.6-16.25L26.6-16.25Q26.4-16.25 26.3-16.4 26.2-16.55 26.2-16.8L26.2-16.8Q26.2-17.75 27.27-19.45 28.35-21.15 29.82-22.48 31.3-23.8 32.45-23.8L32.45-23.8Q33.4-23.8 33.77-23.05 34.15-22.3 34.15-20.7L34.15-20.7Q34.15-18.5 33.2-14.75L33.2-14.75 33.3-14.75Q38.05-23.8 42.1-23.8L42.1-23.8Q43.15-23.8 43.72-23.23 44.3-22.65 44.3-21.6L44.3-21.6Q44.3-20.5 43.82-19.35 43.35-18.2 42.67-17.45 42-16.7 41.45-16.7L41.45-16.7Q41.1-16.7 41.2-17.15L41.2-17.15Q41.35-17.85 41.35-18.25L41.35-18.25Q41.35-19.45 40.05-19.45L40.05-19.45Q38.5-19.45 36.95-17.65 35.4-15.85 34.22-13.25 33.05-10.65 32.6-8.5L32.6-8.5Q32-6.2 31.85-3.7L31.85-3.7Q31.75-2.75 30.97-1.78 30.2-0.8 29.2-0.15 28.2 0.5 27.65 0.5L27.65 0.5ZM48.65 0.5Q46.4 0.5 45.07-1.23 43.75-2.95 43.75-6L43.75-6Q43.75-9.7 45.52-13.93 47.3-18.15 50.1-20.98 52.9-23.8 55.75-23.8L55.75-23.8Q58.35-23.8 58.35-20.65L58.35-20.65Q58.35-18.1 56.85-15.65 55.35-13.2 52.82-11.33 50.3-9.45 47.3-8.45L47.3-8.45Q47.3-5.75 48.17-4.55 49.05-3.35 50.75-3.35L50.75-3.35Q52.55-3.35 54.05-4.5 55.55-5.65 56.6-7.65L56.6-7.65Q56.75-7.95 56.9-8.15 57.05-8.35 57.3-8.35L57.3-8.35Q57.7-8.35 57.7-7.75L57.7-7.75Q57.7-6.4 56.35-4.4 55-2.4 52.9-0.95 50.8 0.5 48.65 0.5L48.65 0.5ZM48.9-11.1Q50.2-11.1 51.67-12.03 53.15-12.95 54.15-14.55 55.15-16.15 55.15-18.15L55.15-18.15Q55.15-20.5 53.5-20.5L53.5-20.5Q52.15-20.5 50.92-19.05 49.7-17.6 48.87-15.45 48.05-13.3 47.75-11.3L47.75-11.3Q48.05-11.1 48.9-11.1L48.9-11.1ZM62.99 0.5Q62.54 0.5 62.54 0.2L62.54 0.2Q62.54 0 62.77-0.68 62.99-1.35 63.39-3L63.39-3Q64.39-7.15 65.79-16.85L65.79-16.85Q66.09-18.75 66.09-19.5L66.09-19.5Q66.09-20.15 65.79-20.15L65.79-20.15Q64.94-20.15 63.24-17.15L63.24-17.15Q62.99-16.7 62.79-16.38 62.59-16.05 62.47-15.9 62.34-15.75 62.19-15.75L62.19-15.75Q61.79-15.75 61.79-16.25L61.79-16.25Q61.79-17.25 62.89-19.1 63.99-20.95 65.49-22.38 66.99-23.8 68.19-23.8L68.19-23.8Q68.99-23.8 69.34-23.1 69.69-22.4 69.69-21.35L69.69-21.35Q69.69-19.7 68.89-14.9L68.89-14.9 68.94-14.9Q71.24-18.95 73.99-21.38 76.74-23.8 78.74-23.8L78.74-23.8Q80.84-23.8 80.84-20.85L80.84-20.85Q80.84-19.75 80.39-17.15L80.39-17.15 79.24-11.15Q77.99-4.8 77.99-3.95L77.99-3.95Q77.99-3.6 78.17-3.33 78.34-3.05 78.74-3.05L78.74-3.05Q80.09-3.05 81.84-7.15L81.84-7.15Q81.99-7.7 82.34-7.7L82.34-7.7Q82.64-7.7 82.64-7.1L82.64-7.1Q82.64-6.65 82.59-6.3L82.59-6.3Q82.24-4.5 81.14-2.93 80.04-1.35 78.69-0.43 77.34 0.5 76.24 0.5L76.24 0.5Q75.19 0.5 74.82-0.38 74.44-1.25 74.44-2.3L74.44-2.3Q74.44-4.55 75.69-10.4L75.69-10.4Q76.89-16.1 76.99-18.3L76.99-18.3Q77.04-19.2 76.87-19.58 76.69-19.95 76.04-19.95L76.04-19.95Q74.49-19.95 72.72-17.9 70.94-15.85 69.54-12.88 68.14-9.9 67.69-7.45L67.69-7.45 66.89-3.1Q66.59-1.8 65.29-0.65 63.99 0.5 62.99 0.5L62.99 0.5ZM88.64 0.5Q86.09 0.5 86.09-4.4L86.09-4.4Q86.09-8.95 88.09-13.48 90.09-18 93.49-20.9 96.89-23.8 100.79-23.8L100.79-23.8 101.29-23.8Q102.94-30.7 104.39-34.2 105.84-37.7 108.24-40L108.24-40Q109.84-41.5 111.14-42.05 112.44-42.6 114.69-43.05L114.69-43.05Q115.69-43.25 116.12-43.43 116.54-43.6 116.69-43.6L116.69-43.6Q117.04-43.6 117.04-43.2L117.04-43.2Q117.04-42.55 116.09-41.75L116.09-41.75Q115.59-41.3 115.17-41.15 114.74-41 114.34-40.95 113.94-40.9 113.74-40.85L113.74-40.85Q111.14-40.5 109.34-38.25L109.34-38.25Q107.99-36.5 106.97-33.25 105.94-30 104.19-21.9L104.19-21.9Q101.29-7.9 100.94-5.15L100.94-5.15Q100.89-4.8 100.89-4.3L100.89-4.3Q100.89-3.2 101.54-3.2L101.54-3.2Q102.34-3.2 103.07-4.28 103.79-5.35 104.59-7.15L104.59-7.15Q104.89-7.7 105.14-7.7L105.14-7.7Q105.44-7.7 105.44-7.15L105.44-7.15 105.34-6.3Q104.94-4.55 103.87-2.98 102.79-1.4 101.47-0.45 100.14 0.5 99.04 0.5L99.04 0.5Q97.44 0.5 97.44-2.15L97.44-2.15Q97.44-3.15 97.64-4.55L97.64-4.55 98.49-8.95 98.44-8.95Q96.59-5.75 93.74-2.63 90.89 0.5 88.64 0.5L88.64 0.5ZM90.99-3.6Q92.39-3.6 94.22-5.78 96.04-7.95 97.62-11.1 99.19-14.25 99.79-16.75L99.79-16.75 100.59-19.95Q99.09-20.95 97.44-20.95L97.44-20.95Q95.29-20.95 93.52-18.48 91.74-16 90.74-12.48 89.74-8.95 89.74-6.1L89.74-6.1Q89.74-4.85 90.02-4.23 90.29-3.6 90.99-3.6L90.99-3.6ZM110.44 19.95Q108.49 19.95 107.14 18.88 105.79 17.8 105.14 16.15 104.49 14.5 104.49 12.75L104.49 12.75Q104.49 11.1 105.09 10.13 105.69 9.15 106.39 8.8 107.09 8.45 107.44 8.45L107.44 8.45Q107.69 8.45 107.69 8.95L107.69 8.95Q107.69 16.75 112.69 16.75L112.69 16.75Q116.24 16.75 118.24 12.5L118.24 12.5Q118.99 10.85 119.64 8.35 120.29 5.85 121.39 0.55L121.39 0.55Q121.84-1.6 121.89-1.9L121.89-1.9 123.39-8.8 123.34-8.8Q122.14-6.3 120.49-4.17 118.84-2.05 117.24-0.78 115.64 0.5 114.64 0.5L114.64 0.5Q113.54 0.5 113.11-1.18 112.69-2.85 112.74-5.25L112.74-5.25 113.14-17.75Q113.19-18.15 113.19-18.85L113.19-18.85Q113.19-19.65 113.01-20.05 112.84-20.45 112.34-20.45L112.34-20.45Q111.69-20.45 110.89-19.6 110.09-18.75 109.49-17.4L109.49-17.4Q109.19-16.55 108.84-16.55L108.84-16.55Q108.44-16.55 108.44-17.15L108.44-17.15Q108.44-18.4 109.34-20 110.24-21.6 111.61-22.7 112.99-23.8 114.24-23.8L114.24-23.8Q115.64-23.8 116.14-22.4 116.64-21 116.64-18.6L116.64-18.6 116.59-17 116.14-8.75 116.09-7.1Q116.09-5.5 116.31-4.8 116.54-4.1 117.14-4.1L117.14-4.1Q118.24-4.1 119.74-6.2 121.24-8.3 122.59-11.35 123.94-14.4 124.59-17.05L124.59-17.05 125.34-20.1Q125.79-21.95 127.06-22.88 128.34-23.8 129.39-23.8L129.39-23.8Q129.79-23.8 129.79-23.55L129.79-23.55Q129.79-23.3 129.61-22.85 129.44-22.4 129.34-22.2L129.34-22.2Q128.94-21.15 128.64-19.93 128.34-18.7 128.04-17L128.04-17 125.39-2.8 124.89 0.05Q124.29 3.55 123.79 5.58 123.29 7.6 122.39 9.58 121.49 11.55 119.84 13.65L119.84 13.65Q117.59 16.65 115.14 18.3 112.69 19.95 110.44 19.95L110.44 19.95Z" opacity="1" transform="matrix(1,0,0,1,0,0)" fill="#000000" class="wordmark-text-0" data-fill-palette-color="quaternary" id="text-0"></path></svg></g></svg></g></svg></g></svg></g><g></g></svg></g><defs></defs></svg><rect width="395.52" height="198.42363534199814" fill="none" stroke="none" visibility="hidden"></rect></g></svg></g></svg>