<svg xmlns="http://www.w3.org/2000/svg" version="1.1" xmlns:xlink="http://www.w3.org/1999/xlink" xmlns:svgjs="http://svgjs.dev/svgjs" width="1000" height="1000" viewBox="0 0 1000 1000"><rect width="1000" height="1000" fill="#ffffff"></rect><g transform="matrix(0.7,0,0,0.7,149.57629864960217,355.3287917348595)"><svg viewBox="0 0 396 164" data-background-color="#ffffff" preserveAspectRatio="xMidYMid meet" height="414" width="1000" xmlns="http://www.w3.org/2000/svg" xmlns:xlink="http://www.w3.org/1999/xlink"><g id="tight-bounds" transform="matrix(1,0,0,1,0.24024096698980202,-0.12947496382662393)"><svg viewBox="0 0 395.52 164.25894992765325" height="164.25894992765325" width="395.52"><g><svg viewBox="0 0 395.52 164.25894992765325" height="164.25894992765325" width="395.52"><g transform="matrix(1,0,0,1,0,107.78097575611505)"><svg viewBox="0 0 395.52 56.477974171538186" height="56.477974171538186" width="395.52"><g id="textblocktransform"><svg viewBox="0 0 395.52 56.477974171538186" height="56.477974171538186" width="395.52" id="textblock"><g><svg viewBox="0 0 395.52 56.477974171538186" height="56.477974171538186" width="395.52"><g transform="matrix(1,0,0,1,0,0)"><svg width="395.52" viewBox="-1.5405800000000003 -31.589710234375 303.65652999999986 43.360130234375" height="56.477974171538186" data-palette-color="#ea3c12"><path d="M8.966 10.974l-6.521 0.796-0.061-0.496 0.94-0.467c1.081-0.495 1.529-1.503 1.344-3.025v0l-3.091-25.312c-0.081-0.662-0.221-1.179-0.421-1.551-0.194-0.379-0.622-0.663-1.283-0.851v0l-1.353-0.439-0.061-0.496 9.54-1.165 12.074 22.815 5.674-24.982 9.747-1.19 0.061 0.496-0.758 0.395c-0.6 0.308-0.991 0.682-1.173 1.12-0.175 0.438-0.222 0.988-0.141 1.649v0l3.158 25.858c0.081 0.662 0.223 1.165 0.426 1.51 0.21 0.344 0.645 0.606 1.305 0.787v0l1.047 0.326 0.061 0.496-12.319 1.504-0.061-0.496 0.988-0.574c0.597-0.335 0.953-0.694 1.068-1.077 0.121-0.384 0.141-0.907 0.06-1.569v0l-1.358-11.117-1.628-14.158-6.831 29.939-2.472 0.302-14.239-27.013 1.652 12.29 1.521 12.458c0.089 0.728 0.27 1.3 0.542 1.717 0.266 0.418 0.725 0.687 1.378 0.808v0l1.125 0.216zM56.871 6.625v0c-2.019 0.178-3.997-0.015-5.934-0.58-1.931-0.566-3.696-1.501-5.297-2.806-1.595-1.312-2.919-3.005-3.972-5.08-1.046-2.069-1.696-4.545-1.95-7.428v0c-0.251-2.842-0.043-5.377 0.624-7.604 0.673-2.228 1.691-4.125 3.052-5.69 1.36-1.572 2.941-2.813 4.741-3.721 1.807-0.909 3.703-1.451 5.689-1.627v0c2.019-0.178 3.993 0.006 5.921 0.552 1.929 0.546 3.694 1.474 5.296 2.785 1.601 1.304 2.925 3.005 3.973 5.101 1.054 2.089 1.708 4.571 1.962 7.446v0c0.248 2.816 0.037 5.344-0.635 7.586-0.666 2.241-1.672 4.146-3.019 5.717-1.347 1.571-2.921 2.811-4.722 3.719-1.8 0.908-3.71 1.452-5.729 1.63zM56.779 5.579v0c1.82-0.161 3.247-0.778 4.284-1.853 1.036-1.075 1.709-2.818 2.018-5.228 0.303-2.409 0.272-5.683-0.094-9.82v0c-0.367-4.164-0.911-7.409-1.631-9.734-0.727-2.318-1.694-3.916-2.903-4.793-1.208-0.877-2.722-1.235-4.542-1.075v0c-1.786 0.158-3.201 0.774-4.244 1.85-1.036 1.075-1.706 2.817-2.008 5.227-0.302 2.416-0.27 5.706 0.098 9.869v0c0.365 4.137 0.908 7.365 1.627 9.685 0.72 2.319 1.684 3.917 2.893 4.794 1.215 0.877 2.716 1.236 4.502 1.078zM82.353 3.776l-7.557 0.441-0.029-0.499 1.618-0.595c0.583-0.201 0.993-0.549 1.231-1.044 0.238-0.495 0.338-1.075 0.299-1.74v0l-1.397-23.919c-0.412-0.771-0.737-1.349-0.973-1.737-0.236-0.387-0.496-0.712-0.778-0.976-0.283-0.264-0.669-0.599-1.16-1.004v0l-0.899-0.799-0.029-0.499 8.805-0.514 17.828 21.567-1.095-18.748c-0.039-0.666-0.18-1.255-0.424-1.768-0.251-0.52-0.71-0.843-1.379-0.972v0l-1.673-0.353-0.029-0.499 7.108-0.415 0.029 0.499-1.312 0.528c-0.587 0.235-0.933 0.605-1.037 1.112-0.104 0.5-0.137 1.083-0.098 1.749v0l1.708 29.24-2.785 0.162-20.513-24.996 1.301 22.272c0.039 0.666 0.172 1.225 0.399 1.68 0.22 0.448 0.652 0.753 1.295 0.916v0l1.517 0.412zM128.626 1.821l-15.684 0.446-0.014-0.5 2.025-0.558c1.358-0.332 2.017-1.181 1.978-2.547v0l-0.807-28.379-4.238 0.121c-1.226 0.035-2.097 0.383-2.612 1.045-0.515 0.662-1.053 1.567-1.613 2.717v0l-1.7 3.529-0.49 0.014 0.019-8.124 28.728-0.817 0.431 8.111-0.5 0.015-1.888-3.428c-0.599-1.117-1.174-1.991-1.725-2.622-0.551-0.631-1.44-0.929-2.667-0.895v0l-4.228 0.121 0.807 28.378c0.039 1.366 0.742 2.176 2.11 2.431v0l2.053 0.442zM158.274 1.634l-14 0 0-0.5 1.49-0.4c1.167-0.327 1.75-1.157 1.75-2.49v0l0-9.46-8.219-16.74c-0.3-0.66-0.573-1.157-0.82-1.49-0.253-0.333-0.627-0.617-1.12-0.85v0l-0.9-0.45 0-0.5 13.35 0 0 0.5-0.9 0.35c-0.727 0.3-1.123 0.707-1.19 1.22-0.067 0.513 0.063 1.153 0.39 1.92v0l5.879 13.05 6.581-13.55c0.267-0.533 0.373-1.08 0.32-1.64-0.047-0.567-0.403-0.933-1.07-1.1v0l-0.7-0.25 0-0.5 5.98 0.001 0 0.5-0.95 0.349c-0.627 0.233-1.09 0.557-1.39 0.97-0.3 0.413-0.6 0.937-0.9 1.57v0l-6.821 14.35 0 11.75c0 0.667 0.123 1.207 0.37 1.62 0.253 0.413 0.693 0.703 1.32 0.87v0l1.55 0.4zM183.204 3.049v0c-3.385-0.095-6.344-0.885-8.877-2.37-2.533-1.485-4.485-3.551-5.858-6.197-1.366-2.646-1.999-5.745-1.9-9.297v0c0.097-3.452 0.895-6.451 2.394-8.997 1.499-2.552 3.622-4.513 6.367-5.883 2.746-1.363 6.045-1.991 9.897-1.883v0c1.759 0.049 3.386 0.292 4.882 0.727 1.502 0.442 2.921 1.066 4.259 1.871v0l0.004 6.973-0.5-0.014-2.643-5.257c-0.403-0.838-0.783-1.446-1.139-1.823-0.356-0.377-0.815-0.673-1.376-0.888v0c-0.522-0.181-1.005-0.318-1.449-0.411-0.451-0.099-1.039-0.159-1.766-0.18v0c-2.059-0.058-3.894 0.441-5.504 1.496-1.603 1.049-2.872 2.757-3.805 5.125-0.927 2.362-1.445 5.485-1.554 9.37v0c-0.108 3.852 0.21 7.002 0.955 9.451 0.745 2.442 1.848 4.24 3.31 5.395 1.461 1.155 3.172 1.76 5.131 1.815v0c0.3 0.008 0.59-0.007 0.871-0.046 0.281-0.045 0.556-0.098 0.825-0.157v0c0.636-0.082 1.06-0.337 1.272-0.764 0.212-0.421 0.326-0.931 0.343-1.531v0l0.277-9.856c0.037-1.299-0.608-2.115-1.932-2.446v0l-2.272-0.664 0.014-0.5 14.044 0.395-0.014 0.5-0.705 0.18c-1.271 0.364-1.924 1.176-1.959 2.436v0l-0.304 10.806c-1.753 0.911-3.526 1.592-5.319 2.041-1.787 0.45-3.776 0.644-5.969 0.583zM211.243 3.365l-12.729-0.733 0.029-0.499 1.058-0.29c0.679-0.195 1.129-0.476 1.351-0.843 0.222-0.368 0.352-0.901 0.393-1.6v0l1.498-26.007c0.038-0.666-0.025-1.193-0.189-1.584-0.158-0.39-0.546-0.719-1.165-0.988v0l-1.112-0.515 0.028-0.499 14.217 0.819c3.914 0.225 6.873 1.137 8.877 2.735 2.005 1.598 2.932 3.705 2.781 6.32v0c-0.084 1.458-0.717 2.887-1.9 4.288-1.176 1.395-2.964 2.42-5.365 3.077v0l6.127 14.125c0.26 0.583 0.573 1.058 0.94 1.427 0.359 0.368 0.848 0.703 1.464 1.006v0l0.625 0.286-0.026 0.449-8.895-0.512-6.456-16.088-3.384-0.195-0.708 12.279c-0.036 0.632 0.034 1.154 0.211 1.565 0.177 0.404 0.573 0.724 1.187 0.96v0l1.172 0.518zM210.341-28.619l-0.873 15.165 2.386 0.137c2.389 0.138 4.15-0.402 5.281-1.619 1.131-1.21 1.77-3.077 1.916-5.599v0c0.147-2.549-0.24-4.475-1.16-5.776-0.92-1.302-2.558-2.02-4.914-2.156v0zM235.534 4.998l-6.844-0.598 0.043-0.498 1.275-0.34c0.687-0.201 1.23-0.478 1.628-0.832 0.398-0.347 0.741-0.859 1.028-1.536v0l12.791-28.436 4.214 0.368 7.494 30.407c0.202 0.754 0.452 1.334 0.752 1.742 0.299 0.408 0.782 0.774 1.449 1.1v0l0.581 0.252-0.044 0.498-12.602-1.1 0.044-0.498 0.769-0.184c0.714-0.205 1.168-0.54 1.362-1.005 0.188-0.465 0.211-1.039 0.07-1.721v0l-1.708-7.346-11.018-0.962-2.991 6.786c-0.296 0.71-0.42 1.285-0.372 1.724 0.042 0.439 0.4 0.818 1.076 1.138v0l1.046 0.543zM243.96-21.62l-6.706 14.963 10.37 0.906zM267.673 8.06l-6.523-0.784 0.06-0.497 1.024-0.229c1.168-0.222 1.844-1.095 2.027-2.617v0l3.042-25.318c0.08-0.662 0.067-1.197-0.039-1.606-0.098-0.415-0.445-0.792-1.042-1.132v0l-1.209-0.75 0.059-0.496 9.542 1.146 6.278 25.038 11.474-22.905 9.75 1.172-0.06 0.496-0.83 0.202c-0.657 0.156-1.125 0.425-1.406 0.808-0.274 0.383-0.451 0.906-0.531 1.568v0l-3.108 25.864c-0.08 0.662-0.062 1.184 0.054 1.568 0.122 0.384 0.481 0.743 1.079 1.076v0l0.939 0.566-0.06 0.497-12.321-1.481 0.06-0.496 1.096-0.322c0.66-0.183 1.091-0.446 1.294-0.791 0.209-0.344 0.354-0.847 0.433-1.509v0l1.336-11.12 1.799-14.136-13.782 27.441-2.472-0.297-7.378-29.631-1.33 12.329-1.498 12.46c-0.087 0.728-0.049 1.327 0.117 1.797 0.159 0.469 0.54 0.84 1.145 1.115v0l1.041 0.477z" opacity="1" transform="matrix(1,0,0,1,0,0)" fill="#000000" class="wordmark-text-0" data-fill-palette-color="primary" id="text-0"></path></svg></g></svg></g></svg></g></svg></g><g transform="matrix(1,0,0,1,152.00577135544148,0)"><svg viewBox="0 0 91.508457289117 91.38136220954878" height="91.38136220954878" width="91.508457289117"><g><svg xmlns="http://www.w3.org/2000/svg" xmlns:xlink="http://www.w3.org/1999/xlink" version="1.1" x="0" y="0" viewBox="5 5.125 90 89.875" enable-background="new 0 0 100 100" xml:space="preserve" height="91.38136220954878" width="91.508457289117" class="icon-icon-0" data-fill-palette-color="accent" id="icon-0"><path d="M65 67.5h10V70H57.5V60c3.1-2.4 5-6 5-10 0-2.2-0.6-4.3-1.6-6.1l19.4-27.2-0.9-0.7c-16.8-14.5-42.1-14.5-58.9 0l-0.9 0.7 19.4 27.2c-1 1.8-1.6 3.9-1.6 6.1 0 4 1.9 7.6 5 10v10H25v-2.5h10V60H5v7.5h10V70H7.5v20H10v5h10v-5h60v5h10v-5h2.5V70H85v-2.5h10V60H65V67.5zM23 17.1C38.6 4.4 61.4 4.4 77 17.1L59.4 41.7c-2.3-2.6-5.6-4.2-9.4-4.2-1.6 0-3.1 0.3-4.5 0.9L34.1 15.6l-2.2 1.1 11.4 22.8c-1 0.6-1.9 1.4-2.6 2.3L23 17.1zM40 50c0-5.5 4.5-10 10-10s10 4.5 10 10c0 3.3-1.7 6.5-4.4 8.3L55 58.7V70H45V58.7l-0.6-0.4C41.7 56.5 40 53.3 40 50zM7.5 65v-2.5h25V65H7.5zM22.5 67.5V70h-5v-2.5H22.5zM17.5 92.5h-5V90h5V92.5zM87.5 92.5h-5V90h5V92.5zM90 72.5v15H10v-15H90zM77.5 70v-2.5h5V70H77.5zM67.5 62.5h25V65h-25V62.5z" fill="#000000" data-fill-palette-color="accent"></path><path d="M50 57.5c4.1 0 7.5-3.4 7.5-7.5s-3.4-7.5-7.5-7.5-7.5 3.4-7.5 7.5S45.9 57.5 50 57.5zM50 45c2.8 0 5 2.2 5 5s-2.2 5-5 5-5-2.2-5-5S47.2 45 50 45z" fill="#000000" data-fill-palette-color="accent"></path></svg></g></svg></g><g></g></svg></g><defs></defs></svg><rect width="395.52" height="164.25894992765325" fill="none" stroke="none" visibility="hidden"></rect></g></svg></g></svg>