<svg xmlns="http://www.w3.org/2000/svg" version="1.1" xmlns:xlink="http://www.w3.org/1999/xlink" xmlns:svgjs="http://svgjs.dev/svgjs" width="1000" height="1000" viewBox="0 0 1000 1000"><rect width="1000" height="1000" fill="#000000"></rect><g transform="matrix(0.7,0,0,0.7,149.57575757575756,413.12641622666854)"><svg viewBox="0 0 396 99" data-background-color="#ffffff" preserveAspectRatio="xMidYMid meet" height="249" width="1000" xmlns="http://www.w3.org/2000/svg" xmlns:xlink="http://www.w3.org/1999/xlink"><g id="tight-bounds" transform="matrix(1,0,0,1,0.2400000000000091,-0.15700061067229854)"><svg viewBox="0 0 395.52 99.31400122134457" height="99.31400122134457" width="395.52"><g><svg viewBox="0 0 564.8579963318705 141.83431365693173" height="99.31400122134457" width="395.52"><g transform="matrix(1,0,0,1,169.3379963318705,41.791279277445454)"><svg viewBox="0 0 395.52 58.25175510204082" height="58.25175510204082" width="395.52"><g id="textblocktransform"><svg viewBox="0 0 395.52 58.25175510204082" height="58.25175510204082" width="395.52" id="textblock"><g><svg viewBox="0 0 395.52 58.25175510204082" height="58.25175510204082" width="395.52"><g transform="matrix(1,0,0,1,0,0)"><svg width="395.52" viewBox="0.8999999761581421 -37.599998474121094 296.2300109863281 43.29999923706055" height="58.25175510204082" data-palette-color="#000000"><g class="wordmark-text-0" data-fill-palette-color="primary" id="text-0"><path d="M10.65-31.8L17.85-32.8 17.85-21.7 18.2-21.7Q19.5-21.7 20.53-22.35 21.55-23 22.28-24.05 23-25.1 23.4-26.4 23.8-27.7 23.8-29.05L23.8-29.05Q23.8-30.2 23.38-31.3 22.95-32.4 22.05-33.27 21.15-34.15 19.75-34.68 18.35-35.2 16.4-35.2L16.4-35.2Q14.35-35.2 12.43-34.6 10.5-34 9-32.77 7.5-31.55 6.58-29.7 5.65-27.85 5.65-25.4L5.65-25.4Q5.65-23.85 5.88-22.88 6.1-21.9 6.38-21.28 6.65-20.65 6.95-20.3 7.25-19.95 7.4-19.65L7.4-19.65Q4.4-19.65 2.65-21.03 0.9-22.4 0.9-25.7L0.9-25.7Q0.9-28.05 2.15-30.18 3.4-32.3 5.55-33.93 7.7-35.55 10.63-36.52 13.55-37.5 16.9-37.5L16.9-37.5Q19.9-37.5 22.15-36.73 24.4-35.95 25.93-34.73 27.45-33.5 28.2-31.93 28.95-30.35 28.95-28.7L28.95-28.7Q28.95-26.7 28.03-24.83 27.1-22.95 25.25-21.65L25.25-21.65Q27.4-21.35 28.98-20.4 30.55-19.45 31.53-18.07 32.5-16.7 32.98-15 33.45-13.3 33.45-11.45L33.45-11.45Q33.45-9.55 33.08-7.4 32.7-5.25 31.75-3.43 30.8-1.6 29.2-0.38 27.6 0.85 25.15 0.85L25.15 0.85Q22.5 0.85 20.75-0.03 19-0.9 19-3.2L19-3.2Q19-4.25 19.45-5.75L19.45-5.75Q20.6-4.75 21.48-4.35 22.35-3.95 23.2-3.95L23.2-3.95Q24.15-3.95 24.8-4.58 25.45-5.2 25.88-6.23 26.3-7.25 26.48-8.5 26.65-9.75 26.65-11L26.65-11Q26.65-12.2 26.43-13.63 26.2-15.05 25.5-16.32 24.8-17.6 23.53-18.45 22.25-19.3 20.15-19.3L20.15-19.3Q19.85-19.3 19.2-19.28 18.55-19.25 17.85-19.15L17.85-19.15 17.85 0 10.65 0 10.65-31.8ZM53.5-32.8L53.5-32.8Q52.45-32.1 51.67-30.2 50.9-28.3 50.37-25.85 49.85-23.4 49.6-20.7 49.35-18 49.35-15.6L49.35-15.6Q49.35-12 49.87-9.75 50.4-7.5 51.17-6.25 51.95-5 52.82-4.58 53.7-4.15 54.4-4.15L54.4-4.15Q55.9-4.15 57.02-5.53 58.15-6.9 58.92-9.2 59.7-11.5 60.07-14.48 60.45-17.45 60.45-20.65L60.45-20.65Q60.45-25.2 59.72-28.05 59-30.9 57.75-32.5 56.5-34.1 54.82-34.65 53.15-35.2 51.3-35.2L51.3-35.2Q48.9-35.2 46.75-34.48 44.6-33.75 43-32.35 41.4-30.95 40.47-28.9 39.55-26.85 39.55-24.25L39.55-24.25Q39.55-22.4 39.95-21.43 40.35-20.45 40.9-19.65L40.9-19.65Q38.05-19.65 36.42-20.93 34.8-22.2 34.8-25L34.8-25Q34.8-27.55 36.17-29.83 37.55-32.1 39.9-33.8 42.25-35.5 45.42-36.5 48.6-37.5 52.2-37.5L52.2-37.5Q56.55-37.5 59.5-36.05 62.45-34.6 64.2-32.1 65.95-29.6 66.7-26.3 67.45-23 67.45-19.35L67.45-19.35Q67.45-17.15 67.2-14.85 66.95-12.55 66.32-10.38 65.7-8.2 64.7-6.25 63.7-4.3 62.2-2.85 60.7-1.4 58.65-0.55 56.6 0.3 53.95 0.3L53.95 0.3Q51.55 0.3 49.37-0.5 47.2-1.3 45.52-3.15 43.85-5 42.87-8.03 41.9-11.05 41.9-15.55L41.9-15.55Q41.9-18.25 42.32-21.35 42.75-24.45 43.8-27.08 44.85-29.7 46.6-31.45 48.35-33.2 50.95-33.2L50.95-33.2Q51.5-33.2 52.15-33.13 52.8-33.05 53.5-32.8ZM88.35-32.8L88.35-32.8Q87.3-32.1 86.52-30.2 85.75-28.3 85.22-25.85 84.7-23.4 84.45-20.7 84.2-18 84.2-15.6L84.2-15.6Q84.2-12 84.72-9.75 85.25-7.5 86.02-6.25 86.8-5 87.67-4.58 88.55-4.15 89.25-4.15L89.25-4.15Q90.75-4.15 91.87-5.53 93-6.9 93.77-9.2 94.55-11.5 94.92-14.48 95.3-17.45 95.3-20.65L95.3-20.65Q95.3-25.2 94.57-28.05 93.85-30.9 92.6-32.5 91.35-34.1 89.67-34.65 88-35.2 86.15-35.2L86.15-35.2Q83.75-35.2 81.6-34.48 79.45-33.75 77.85-32.35 76.25-30.95 75.32-28.9 74.4-26.85 74.4-24.25L74.4-24.25Q74.4-22.4 74.8-21.43 75.2-20.45 75.75-19.65L75.75-19.65Q72.9-19.65 71.27-20.93 69.65-22.2 69.65-25L69.65-25Q69.65-27.55 71.02-29.83 72.4-32.1 74.75-33.8 77.1-35.5 80.27-36.5 83.45-37.5 87.05-37.5L87.05-37.5Q91.4-37.5 94.35-36.05 97.3-34.6 99.05-32.1 100.8-29.6 101.55-26.3 102.3-23 102.3-19.35L102.3-19.35Q102.3-17.15 102.05-14.85 101.8-12.55 101.17-10.38 100.55-8.2 99.55-6.25 98.55-4.3 97.05-2.85 95.55-1.4 93.5-0.55 91.45 0.3 88.8 0.3L88.8 0.3Q86.4 0.3 84.22-0.5 82.05-1.3 80.37-3.15 78.7-5 77.72-8.03 76.75-11.05 76.75-15.55L76.75-15.55Q76.75-18.25 77.17-21.35 77.6-24.45 78.65-27.08 79.7-29.7 81.45-31.45 83.2-33.2 85.8-33.2L85.8-33.2Q86.35-33.2 87-33.13 87.65-33.05 88.35-32.8ZM121.49-37.4L121.49-21.4 130.19-37.25 134.84-37.25 124.19-21.25Q124.74-21.25 125.07-21.28 125.39-21.3 125.94-21.3L125.94-21.3Q129.74-21.3 131.74-19.4 133.74-17.5 133.74-12.9L133.74-12.9Q133.74-12.2 133.69-11.18 133.64-10.15 133.62-9.1 133.59-8.05 133.54-7.1 133.49-6.15 133.49-5.55L133.49-5.55Q133.49-3.1 134.27-1.8 135.04-0.5 136.34 0L136.34 0Q134.84 0.45 133.64 0.65 132.44 0.85 131.49 0.85L131.49 0.85Q129.04 0.85 127.89-0.48 126.74-1.8 126.74-4.7L126.74-4.7Q126.74-5.4 126.79-6.45 126.84-7.5 126.92-8.65 126.99-9.8 127.04-10.93 127.09-12.05 127.09-12.95L127.09-12.95Q127.09-15.65 126.29-17.35 125.49-19.05 123.19-19.05L123.19-19.05Q122.74-19.05 122.29-19 121.84-18.95 121.49-18.85L121.49-18.85 121.49 0 114.29 0 114.29-33.9Q111.89-32.75 110.59-30.58 109.29-28.4 109.29-25.25L109.29-25.25Q109.29-23.9 109.52-22.93 109.74-21.95 110.04-21.3 110.34-20.65 110.62-20.25 110.89-19.85 111.04-19.65L111.04-19.65Q108.04-19.65 106.29-21.05 104.54-22.45 104.54-25.45L104.54-25.45Q104.54-28 105.79-30.2 107.04-32.4 109.12-34.02 111.19-35.65 113.87-36.58 116.54-37.5 119.39-37.5L119.39-37.5Q119.94-37.5 120.47-37.48 120.99-37.45 121.49-37.4L121.49-37.4Z" fill="#ffffff" data-fill-palette-color="primary"></path><path d="M169.89-31.2L169.89-31.2Q169.89-29.3 169.06-28.13 168.24-26.95 166.69-26.95L166.69-26.95Q165.29-26.95 164.19-28L164.19-28Q164.89-28.5 165.26-29.45 165.64-30.4 165.64-31.4L165.64-31.4Q165.64-32.95 164.64-33.95 163.64-34.95 161.59-34.95L161.59-34.95Q159.34-34.95 158.34-33.7 157.34-32.45 157.34-30.35L157.34-30.35Q157.34-27.9 158.51-26.35 159.69-24.8 161.44-23.58 163.19-22.35 165.21-21.25 167.24-20.15 168.99-18.65 170.74-17.15 171.91-15.03 173.09-12.9 173.09-9.6L173.09-9.6Q173.09-6.8 172.16-4.8 171.24-2.8 169.64-1.53 168.04-0.25 165.84 0.33 163.64 0.9 161.04 0.9L161.04 0.9Q158.74 0.9 156.51 0.43 154.29-0.05 152.56-1.13 150.84-2.2 149.79-3.98 148.74-5.75 148.74-8.3L148.74-8.3Q148.74-10 149.21-11.4 149.69-12.8 150.51-13.75 151.34-14.7 152.44-15.23 153.54-15.75 154.74-15.75L154.74-15.75Q155.34-15.75 156.04-15.6 156.74-15.45 157.44-15.08 158.14-14.7 158.74-14.05 159.34-13.4 159.69-12.45L159.69-12.45Q158.79-12.45 157.89-12.25 156.99-12.05 156.26-11.55 155.54-11.05 155.09-10.18 154.64-9.3 154.64-7.95L154.64-7.95Q154.64-5.35 156.24-4.23 157.84-3.1 160.24-3.1L160.24-3.1Q162.64-3.1 163.94-4.25 165.24-5.4 165.24-8.2L165.24-8.2Q165.24-10.8 164.16-12.6 163.09-14.4 161.44-15.75 159.79-17.1 157.91-18.28 156.04-19.45 154.39-20.83 152.74-22.2 151.66-24.05 150.59-25.9 150.59-28.6L150.59-28.6Q150.59-32.95 153.49-35.23 156.39-37.5 161.39-37.5L161.39-37.5Q162.09-37.5 163.51-37.38 164.94-37.25 166.36-36.63 167.79-36 168.84-34.73 169.89-33.45 169.89-31.2ZM191.39-37.4L191.39-22.5 198.74-22.5 198.74-37.4 205.93-37.4 205.93 0 198.74 0 198.74-18.8 191.39-18.8 191.39 0 184.19 0 184.19-33.9Q181.79-32.75 180.49-30.63 179.19-28.5 179.19-25.5L179.19-25.5Q179.19-23.9 179.41-22.93 179.64-21.95 179.91-21.3 180.19-20.65 180.49-20.3 180.79-19.95 180.94-19.65L180.94-19.65Q177.94-19.65 176.19-21.03 174.44-22.4 174.44-25.7L174.44-25.7Q174.44-28.1 175.69-30.23 176.94-32.35 179.01-33.98 181.09-35.6 183.76-36.55 186.44-37.5 189.29-37.5L189.29-37.5Q189.84-37.5 190.36-37.48 190.89-37.45 191.39-37.4L191.39-37.4ZM236.08 0L228.83 0 228.83-18.15Q226.78-19 225.18-19.38 223.58-19.75 221.98-19.9L221.98-19.9Q221.38-17.6 220.93-15.23 220.48-12.85 220.18-10.53 219.88-8.2 219.73-6 219.58-3.8 219.58-1.95L219.58-1.95Q219.58 0.15 219.76 1.5 219.93 2.85 220.21 3.68 220.48 4.5 220.81 4.95 221.13 5.4 221.38 5.7L221.38 5.7Q220.13 5.7 218.71 5.55 217.28 5.4 216.06 4.58 214.83 3.75 214.03 2.05 213.23 0.35 213.23-2.8L213.23-2.8Q213.23-4.45 213.48-6.45 213.73-8.45 214.18-10.68 214.63-12.9 215.31-15.28 215.98-17.65 216.83-20L216.83-20Q214.43-19.85 212.98-19.25 211.53-18.65 211.28-17.35L211.28-17.35Q211.53-17.35 211.93-16.73 212.33-16.1 212.33-15.5L212.33-15.5Q212.33-14.75 211.63-14.3 210.93-13.85 209.88-13.85L209.88-13.85Q208.43-13.85 207.26-14.75 206.08-15.65 206.08-17.4L206.08-17.4Q206.08-19.8 208.53-21.35 210.98-22.9 214.98-22.9L214.98-22.9Q216.18-22.9 217.93-22.75L217.93-22.75Q219.18-25.75 220.73-28.43 222.28-31.1 224.08-33.13 225.88-35.15 227.88-36.33 229.88-37.5 232.08-37.5L232.08-37.5Q232.83-37.5 233.96-37.35 235.08-37.2 236.08-36.8L236.08-36.8 236.08 0ZM228.83-20.35L228.83-33.9Q226.93-32.65 225.33-29.45 223.73-26.25 222.58-22.05L222.58-22.05Q224.13-21.75 225.71-21.33 227.28-20.9 228.83-20.35L228.83-20.35ZM249.03-31.8L256.23-32.8 256.23-21.25 256.63-21.25Q257.93-21.25 258.96-21.88 259.98-22.5 260.68-23.55 261.38-24.6 261.73-25.93 262.08-27.25 262.08-28.65L262.08-28.65Q262.08-29.6 261.83-30.75 261.58-31.9 260.81-32.88 260.03-33.85 258.56-34.52 257.08-35.2 254.63-35.2L254.63-35.2Q252.33-35.2 250.41-34.55 248.48-33.9 247.08-32.63 245.68-31.35 244.88-29.48 244.08-27.6 244.08-25.15L244.08-25.15Q244.08-23.75 244.31-22.78 244.53-21.8 244.83-21.18 245.13-20.55 245.41-20.2 245.68-19.85 245.78-19.65L245.78-19.65Q242.78-19.65 241.03-21.05 239.28-22.45 239.28-25.45L239.28-25.45Q239.28-27.9 240.43-30.08 241.58-32.25 243.68-33.9 245.78-35.55 248.71-36.52 251.63-37.5 255.18-37.5L255.18-37.5Q257.88-37.5 260.13-36.9 262.38-36.3 264.01-35.15 265.63-34 266.53-32.3 267.43-30.6 267.43-28.45L267.43-28.45Q267.43-26.25 266.46-24.25 265.48-22.25 263.58-20.95L263.58-20.95Q266.03-20.35 267.26-18.45 268.48-16.55 268.48-12.9L268.48-12.9Q268.48-12.2 268.43-11.18 268.38-10.15 268.36-9.1 268.33-8.05 268.28-7.1 268.23-6.15 268.23-5.55L268.23-5.55Q268.23-3.1 269.01-1.8 269.78-0.5 271.08 0L271.08 0Q269.58 0.45 268.38 0.65 267.18 0.85 266.23 0.85L266.23 0.85Q263.78 0.85 262.63-0.48 261.48-1.8 261.48-4.7L261.48-4.7Q261.48-5.4 261.53-6.45 261.58-7.5 261.66-8.65 261.73-9.8 261.78-10.93 261.83-12.05 261.83-12.95L261.83-12.95Q261.83-15.7 261.01-17.38 260.18-19.05 257.88-19.05L257.88-19.05Q257.03-19.05 256.23-18.85L256.23-18.85 256.23 0 249.03 0 249.03-31.8ZM295.88-9L297.13-8.5Q296.58-6.25 295.38-4.5 294.18-2.75 292.48-1.55 290.78-0.35 288.73 0.28 286.68 0.9 284.43 0.9L284.43 0.9Q281.58 0.9 279.48-0.03 277.38-0.95 275.95-2.5 274.53-4.05 273.83-6.05 273.13-8.05 273.13-10.2L273.13-10.2Q273.13-11.85 273.55-13.55 273.98-15.25 274.83-16.73 275.68-18.2 276.95-19.3 278.23-20.4 279.93-20.85L279.93-20.85Q277.53-22.35 276.45-24.3 275.38-26.25 275.38-28.4L275.38-28.4Q275.38-30.1 276.03-31.78 276.68-33.45 277.95-34.73 279.23-36 281.1-36.8 282.98-37.6 285.38-37.6L285.38-37.6Q286.83-37.6 288.13-37.27 289.43-36.95 290.43-36.2 291.43-35.45 292.03-34.27 292.63-33.1 292.63-31.4L292.63-31.4Q292.63-29.65 291.98-28.35 291.33-27.05 290.03-27.05L290.03-27.05Q289.48-27.05 288.83-27.33 288.18-27.6 287.48-28.3L287.48-28.3Q288.18-28.55 288.6-29.58 289.03-30.6 289.03-31.65L289.03-31.65Q289.03-32.6 288.7-33.2 288.38-33.8 287.88-34.13 287.38-34.45 286.83-34.55 286.28-34.65 285.83-34.65L285.83-34.65Q284.73-34.65 283.93-34.2 283.13-33.75 282.63-33 282.13-32.25 281.88-31.25 281.63-30.25 281.63-29.2L281.63-29.2Q281.63-27.8 282.03-26.5 282.43-25.2 283.25-24.1 284.08-23 285.33-22.18 286.58-21.35 288.28-20.9L288.28-20.9Q286.68-20.5 285.43-19.48 284.18-18.45 283.35-17.03 282.53-15.6 282.1-13.95 281.68-12.3 281.68-10.75L281.68-10.75Q281.68-9.4 282.03-8.15 282.38-6.9 283.1-5.98 283.83-5.05 284.95-4.48 286.08-3.9 287.68-3.9L287.68-3.9Q288.88-3.9 290.18-4.25 291.48-4.6 292.6-5.25 293.73-5.9 294.6-6.85 295.48-7.8 295.88-9L295.88-9Z" fill="#ffffff" data-fill-palette-color="secondary"></path></g></svg></g></svg></g></svg></g></svg></g><g><svg viewBox="0 0 141.83431365693173 141.83431365693173" height="141.83431365693173" width="141.83431365693173"><g><svg></svg></g><g id="icon-0"><svg viewBox="0 0 141.83431365693173 141.83431365693173" height="141.83431365693173" width="141.83431365693173"><g><path d="M0 70.917c0-39.166 31.751-70.917 70.917-70.917 39.166 0 70.917 31.751 70.917 70.917 0 39.166-31.751 70.917-70.917 70.917-39.166 0-70.917-31.751-70.917-70.917zM70.917 136.581c36.265 0 65.664-29.399 65.664-65.664 0-36.265-29.399-65.664-65.664-65.664-36.265 0-65.664 29.399-65.664 65.664 0 36.265 29.399 65.664 65.664 65.664z" data-fill-palette-color="accent" fill="#ffffff" stroke="transparent"></path></g><g transform="matrix(1,0,0,1,29.877528699525797,45.882983669812425)"><svg viewBox="0 0 82.07925625788013 50.068346317306876" height="50.068346317306876" width="82.07925625788013"><g><svg version="1.1" xmlns="http://www.w3.org/2000/svg" xmlns:xlink="http://www.w3.org/1999/xlink" x="0" y="0" viewBox="0 0 100 61" enable-background="new 0 0 100 61" xml:space="preserve" height="50.068346317306876" width="82.07925625788013" class="icon-s-0" data-fill-palette-color="accent" id="s-0"><path d="M89 0c-6.075 0-11 4.925-11 11 0 2.314 0.719 4.46 1.939 6.232l-4.207 4.207C73.96 20.219 71.814 19.5 69.5 19.5s-4.46 0.719-6.232 1.939l-4.207-4.207C60.281 15.46 61 13.314 61 11c0-6.075-4.925-11-11-11S39 4.925 39 11c0 2.314 0.719 4.46 1.94 6.232l-4.208 4.207C34.96 20.219 32.815 19.5 30.5 19.5s-4.46 0.719-6.232 1.939l-4.208-4.207C21.281 15.46 22 13.314 22 11c0-6.075-4.925-11-11-11S0 4.925 0 11s4.925 11 11 11c2.315 0 4.46-0.719 6.232-1.939l4.208 4.207c-1.221 1.772-1.94 3.918-1.94 6.232 0 6.075 4.925 11 11 11 2.315 0 4.46-0.719 6.232-1.939l4.208 4.207C39.719 45.54 39 47.686 39 50c0 6.075 4.925 11 11 11s11-4.925 11-11c0-2.314-0.719-4.46-1.939-6.232l4.207-4.207C65.04 40.781 67.186 41.5 69.5 41.5c6.075 0 11-4.925 11-11 0-2.314-0.719-4.46-1.939-6.232l4.207-4.207C84.54 21.281 86.686 22 89 22c6.075 0 11-4.925 11-11S95.075 0 89 0zM60.439 36.732l-4.207 4.207C54.46 39.719 52.314 39 50 39c-2.315 0-4.46 0.719-6.232 1.939l-4.208-4.207c1.221-1.772 1.94-3.918 1.94-6.232s-0.719-4.46-1.94-6.232l4.208-4.207C45.54 21.281 47.685 22 50 22c2.314 0 4.46-0.719 6.232-1.939l4.207 4.207C59.219 26.04 58.5 28.186 58.5 30.5S59.219 34.96 60.439 36.732z" fill="#ffffff" data-fill-palette-color="accent"></path></svg></g></svg></g></svg></g></svg></g></svg></g><defs></defs></svg><rect width="395.52" height="99.31400122134457" fill="none" stroke="none" visibility="hidden"></rect></g></svg></g></svg>